<?xml version="1.0" encoding="utf-8"?>
<!-- Generator: Adobe Illustrator 22.0.0, SVG Export Plug-In . SVG Version: 6.00 Build 0)  -->
<svg version="1.1" id="Layer_1" xmlns="http://www.w3.org/2000/svg" xmlns:xlink="http://www.w3.org/1999/xlink" x="0px" y="0px"
	 width="661.5px" height="561px" viewBox="0 0 661.5 561" style="enable-background:new 0 0 661.5 561;" xml:space="preserve">
<style type="text/css">
	.st0{fill:#EE4137;}
</style>
<title>logo-icon-white</title>
<g id="Layer_2_1_">
	<g id="Layer_1-2">
		<path class="st0" d="M661.4,263.1v-0.4c-0.7-39.4-4.8-65.6-12.1-93.2c-1.4-5.4-3-10.8-4.7-16.5c-0.4-1.4-0.9-2.8-1.3-4.2
			c-16.5-53.1-43.5-91.1-77.7-115.4c-3.3-2.4-6.8-4.7-10.3-6.8c-0.1-0.1-0.3-0.2-0.4-0.3C525.4,8.4,491-0.1,453.7,0
			c-0.9,0-1.7,0-2.5,0c-12,0.2-23.9,1.2-35.7,3l-0.6,0.1C292.2,21.4,152.4,118,88.4,165.5C17.4,218.1,0,232.1,0,248
			c0,22.6,18.8,34.1,32.2,34.1s39.4-0.9,39.4,27c0,20.6-7.1,24.5-7.1,27.7s2,4.2,5.6,4.2s33.3-5.7,33.3-34.7
			c0.3-17.5-10.3-13-10.3-33.8c0-15.9,19.3-24.4,28.6-24.4c14.2,0,38.1,0.3,38.1,56.3c0,2.7,0,5.5,0.1,8.2c0,1.8,0.1,3.5,0.2,5.3
			s0.2,3.5,0.3,5.3c0.3,4.7,0.7,9.4,1.2,14.1c1.1,9.8,2.6,19.5,4.5,29c2.3,11.3,5.1,22.4,8.6,33.4c0.5,1.4,0.9,2.8,1.4,4.1
			c0.6,1.7,1.1,3.4,1.8,5c0.2,0.7,0.5,1.4,0.7,2c12.2,33.9,30,64.7,51.7,89.4c3.4,3.9,6.9,7.6,10.4,11.1c0.3,0.3,0.6,0.6,0.9,0.9
			c8.9,8.8,18.6,16.6,28.9,23.6c0.9,0.6,1.7,1.1,2.5,1.6c7.8,5,16,9.4,24.6,12.9l0.4,0.2c16.5,6.9,34.3,10.5,52.2,10.5
			c0.8,0,1.5,0,2.3,0c0.1,0,0.2,0,0.3,0c60.1-0.4,108.5-15.2,146.3-34.6c0.1-0.1,0.2-0.1,0.3-0.2c70-36.1,103.3-87.8,105.7-91.7
			c0-0.1,0.1-0.1,0.1-0.2c0,0,0-0.1,0.1-0.1l-0.6,0.1C421,465,268.2,409.7,275.1,255.8c0-11.4-10.7-18.7-10.7-20s0.5-2,3.8-6
			c14.9-17.5,27.1-37.1,36-58.3c0.7-1.7-0.1-3.6-1.8-4.3c-0.6-0.3-1.3-0.3-2-0.1c-5.7,1.5-11.6,2.4-17.6,2.5
			c-10.5,0-16.7-7.7-16.7-14.8c0-30.6,126.6-84.5,205.8-84.8c162.9-0.5,183.3,144.5,189,213.6c0,0.2,0,0.4,0,0.5c0-0.4,0-0.9,0-1.3
			C661.2,278.9,661.7,275.3,661.4,263.1z M185.1,177.1c-1.3,1.5-2.8,2.8-4.4,4c-7.6,5.3-18.1,6.2-27.8-0.7c-1.5-1.1-2.6-2.5-3.3-4.2
			c-1.7-3.4-1.6-7.4-0.9-11c2.6-12.8,15-21.2,27.9-18.6c0.1,0,0.1,0,0.2,0c5.8,1.2,11.7,5,13.6,10.8
			C192.6,164.2,189.1,172.2,185.1,177.1z"/>
	</g>
</g>
</svg>
