<svg xmlns="http://www.w3.org/2000/svg" viewBox="0 0 661.52 561.04"><defs><style>.cls-1{fill:#fff;}</style></defs><title>logo-icon-white</title><g id="Layer_2" data-name="Layer 2"><g id="Layer_1-2" data-name="Layer 1"><path class="cls-1" d="M661.43,263.1v-.39c-.69-39.35-4.75-65.56-12.06-93.21-1.42-5.4-3-10.84-4.65-16.48-.43-1.41-.86-2.83-1.29-4.21-16.54-53.1-43.53-91.13-77.71-115.42q-5-3.62-10.28-6.79c-.14-.1-.27-.17-.4-.27C525.41,8.44,491-.1,453.66,0c-.85,0-1.68,0-2.53,0A268.16,268.16,0,0,0,415.4,3l-.63.1C292.17,21.36,152.4,118,88.36,165.51,17.4,218.12,0,232.06,0,248c0,22.61,18.82,34.12,32.2,34.12s39.35-.86,39.35,27c0,20.59-7.12,24.52-7.12,27.68s2,4.19,5.64,4.19,33.32-5.74,33.32-34.71c.3-17.5-10.25-13-10.25-33.75,0-15.88,19.31-24.45,28.64-24.45,14.24,0,38.1.33,38.1,56.29,0,2.74,0,5.5.13,8.24,0,1.75.1,3.53.16,5.27s.17,3.53.27,5.31c.29,4.71.69,9.39,1.22,14.07q1.58,14.69,4.51,29a312.94,312.94,0,0,0,8.64,33.35c.46,1.38.89,2.77,1.35,4.12.56,1.68,1.15,3.36,1.75,5,.23.69.46,1.39.72,2.05,12.23,33.94,30,64.69,51.65,89.41,3.39,3.86,6.85,7.58,10.44,11.14.3.3.63.59.89.89a195.37,195.37,0,0,0,28.94,23.56c.86.56,1.71,1.13,2.54,1.62a156.08,156.08,0,0,0,24.62,12.92l.39.16A136.34,136.34,0,0,0,350.27,561c.76,0,1.52,0,2.25,0a.39.39,0,0,0,.26,0c60.08-.4,108.5-15.23,146.27-34.61a3.2,3.2,0,0,1,.33-.16c70-36.09,103.25-87.77,105.72-91.72a1.09,1.09,0,0,1,.1-.17.51.51,0,0,1,.07-.1l-.59.1C421,465,268.21,409.73,275.13,255.82c0-11.4-10.68-18.69-10.68-20s.5-2,3.83-6a226.23,226.23,0,0,0,36.05-58.27,3.28,3.28,0,0,0-3.82-4.42,78.38,78.38,0,0,1-17.57,2.54c-10.54,0-16.74-7.68-16.74-14.77,0-30.58,126.59-84.53,205.79-84.77,162.87-.49,183.34,144.52,189,213.57,0,.17,0,.36,0,.53,0-.43,0-.86,0-1.29C661.2,278.86,661.73,275.33,661.43,263.1ZM185.12,177.05a25.19,25.19,0,0,1-4.41,4c-7.65,5.27-18.1,6.23-27.75-.72a9.59,9.59,0,0,1-3.3-4.22c-1.68-3.43-1.61-7.35-.92-11a23.72,23.72,0,0,1,28.11-18.59c5.77,1.18,11.73,5,13.55,10.84C192.64,164.2,189.08,172.24,185.12,177.05Z"/></g></g></svg>