<svg xmlns="http://www.w3.org/2000/svg" viewBox="0 0 494.37 111.81"><defs><style>.cls-1{fill:#fff;}</style></defs><title>logo-full-white</title><g id="Layer_2" data-name="Layer 2"><g id="Layer_1-2" data-name="Layer 1"><path class="cls-1" d="M131.82,52.44v-.08a72.48,72.48,0,0,0-2.4-18.58c-.28-1.08-.59-2.16-.93-3.28-.08-.28-.17-.57-.25-.84-3.3-10.59-8.68-18.17-15.49-23-.67-.48-1.36-.93-2-1.35l-.08,0A38.34,38.34,0,0,0,90.41,0h-.5a52.81,52.81,0,0,0-7.12.58l-.13,0C58.23,4.26,30.37,23.52,17.61,33,3.47,43.47,0,46.25,0,49.42a6.68,6.68,0,0,0,6.42,6.8c2.66,0,7.84-.17,7.84,5.37,0,4.11-1.42,4.89-1.42,5.52s.41.83,1.12.83S20.61,66.8,20.61,61c.05-3.49-2.05-2.6-2.05-6.73,0-3.16,3.85-4.87,5.71-4.87,2.84,0,7.59.06,7.59,11.22,0,.54,0,1.09,0,1.64l0,1.05L32,64.4c.05.94.13,1.87.24,2.8q.31,2.92.9,5.79a61.15,61.15,0,0,0,1.72,6.65l.27.82c.11.33.23.67.35,1,0,.14.09.28.14.41A56,56,0,0,0,45.89,99.69c.68.77,1.37,1.51,2.09,2.22l.17.18a38.85,38.85,0,0,0,5.77,4.69q.26.18.51.33a31.4,31.4,0,0,0,4.9,2.57l.08,0a27.21,27.21,0,0,0,10.4,2.1h.5a64,64,0,0,0,29.15-6.9l.07,0c14-7.19,20.57-17.49,21.07-18.28,0,0,0,0,0,0s0,0,0,0l-.12,0C83.9,92.67,53.45,81.66,54.83,51c0-2.27-2.12-3.72-2.12-4s.09-.4.76-1.2a45,45,0,0,0,7.18-11.61.65.65,0,0,0-.76-.88,15.45,15.45,0,0,1-3.5.5,3.13,3.13,0,0,1-3.34-2.94c0-6.09,25.23-16.85,41-16.89,32.46-.1,36.54,28.8,37.67,42.56,0,0,0,.07,0,.11a2.26,2.26,0,0,1,0-.26C131.78,55.58,131.88,54.87,131.82,52.44ZM36.9,35.29a5.6,5.6,0,0,1-.89.8,4.64,4.64,0,0,1-5.53-.15,1.88,1.88,0,0,1-.65-.84,3.52,3.52,0,0,1-.19-2.2A4.86,4.86,0,0,1,30.5,31a4.77,4.77,0,0,1,4.75-1.79A3.49,3.49,0,0,1,38,31.36,4.54,4.54,0,0,1,36.9,35.29Z"/><path class="cls-1" d="M194.36,31.94,182.59,87.21H167.26L179,31.94Zm23,5.58q-3.65,2.85-10.63,8.85l-3.87,3.41-1.52,1.29,15.49,21.49L213,90.4h-.75l-22.4-31.51,12-10.32a79.25,79.25,0,0,0,9.49-9.26,41.41,41.41,0,0,0,4.86-7.37h9.26l-.07.15A72.38,72.38,0,0,0,217.36,37.52Z"/><path class="cls-1" d="M256.53,45.46l-5.69,10.62a6.08,6.08,0,0,0-3.8-1.21,5.46,5.46,0,0,0-4.21,2q-1.79,2-4.06,9t-5.32,21.37H219.18l8.43-39.55,14.57-3.12h.31L239.3,59.65h.38q2.81-7.59,6.11-11.12A10.1,10.1,0,0,1,253.34,45,13.08,13.08,0,0,1,256.53,45.46Z"/><path class="cls-1" d="M281.43,81.17A22.25,22.25,0,0,0,288,76.43l.76.53q-9.19,11.16-20.42,11.16-7.36,0-11.81-4.59t-4.44-12.72A26.23,26.23,0,0,1,255.39,58a24.91,24.91,0,0,1,22.25-13q6.38,0,10.25,2.43A7.4,7.4,0,0,1,291.76,54q0,5.16-6.38,9.11t-18.67,6.22V71c0,4.15.7,7.14,2.12,9a7.41,7.41,0,0,0,6.23,2.73A15.65,15.65,0,0,0,281.43,81.17Zm-9-31.61a25.22,25.22,0,0,0-3.87,8.38,51.87,51.87,0,0,0-1.79,10.14,22.18,22.18,0,0,0,10.93-6.65,15.47,15.47,0,0,0,4-10.36,5.92,5.92,0,0,0-.91-3.79,3.12,3.12,0,0,0-2.5-1.07Q274.9,46.21,272.44,49.56Z"/><path class="cls-1" d="M333.28,82.58a2.25,2.25,0,0,0,.65,1.78,3.54,3.54,0,0,0,2.31.57,9.65,9.65,0,0,0,1.52-.15l-.07.45a20.79,20.79,0,0,1-4.41,1.9,20,20,0,0,1-6.38,1q-3.94,0-5.8-1.56a5.73,5.73,0,0,1-1.86-4.67,15.42,15.42,0,0,1,.45-3.56l1.07-4.86h-.61q-3.34,8-7.25,11.35a13.37,13.37,0,0,1-8.85,3.3q-5.83,0-8.42-3.8t-2.58-10.17a32,32,0,0,1,3.34-14.5A27.29,27.29,0,0,1,305.65,49a23.29,23.29,0,0,1,13.28-4,21.84,21.84,0,0,1,7.18,1.14,17.73,17.73,0,0,1,5.73,3.19l9-4.79h.31l-7.37,34.62A18,18,0,0,0,333.28,82.58Zm-15.64-7q3.57-6,7.29-21.78a9.23,9.23,0,0,0-1.33-5.32,4.44,4.44,0,0,0-4-2.2c-2.43,0-4.6,1.46-6.49,4.37a35.07,35.07,0,0,0-4.44,10.74,49.22,49.22,0,0,0-1.6,12q0,8.2,3.87,8.2Q314.08,81.59,317.64,75.59Z"/><path class="cls-1" d="M358.26,77.79a12.2,12.2,0,0,0-.38,2.59c0,1.72.83,2.58,2.5,2.58q2.82,0,8-5.17l.84.76q-8.2,9.57-15.64,9.57c-3.49,0-6-.74-7.48-2.2a7.74,7.74,0,0,1-2.24-5.77,13.42,13.42,0,0,1,.31-3.12l6.22-29.45h-4.25l.23-1.29,4.4-.38L367.9,31h.3L365,45.91h9.8l-1.29,1.67h-8.89Z"/><path class="cls-1" d="M378.53,47.66l14.57-3.12h.31l-9,42.67H370.1Zm1.74-15.57,10-7.89,7,9.11-10,7.89Z"/><path class="cls-1" d="M436,47.39q2.58,2.38,2.58,7.25a25,25,0,0,1-.6,5l-5.85,27.56H417.85l6.07-28.39a19.83,19.83,0,0,0,.53-4,4.1,4.1,0,0,0-.64-2.47,2.52,2.52,0,0,0-2.17-.87q-1.89,0-4,2.28t-5,10.17a184.92,184.92,0,0,0-6.15,23.23H392.19l8.43-39.55,14.57-3.12h.31l-3.19,15.11h.6q3.19-8.19,6.91-11.43A12.9,12.9,0,0,1,428.55,45Q433.41,45,436,47.39Z"/><path class="cls-1" d="M449.77,86.07a15,15,0,0,1-5.92-5.88,17.88,17.88,0,0,1-2.16-8.92,26.86,26.86,0,0,1,12.45-22.7A22.84,22.84,0,0,1,466.51,45a16.74,16.74,0,0,1,9,2.24,17.89,17.89,0,0,1,5.7,5.58l-4.78,3.64a33.6,33.6,0,0,0-3.34-7.7,5.33,5.33,0,0,0-4.71-2.55q-3.57,0-6.26,4.29A34,34,0,0,0,458,61a50.67,50.67,0,0,0-1.44,11.42c0,3.55.7,6.14,2.12,7.79a7.51,7.51,0,0,0,6,2.46,13.66,13.66,0,0,0,5.5-1.17,17.73,17.73,0,0,0,5.51-4.14l.83.61a34.15,34.15,0,0,1-8.65,7.55,18.63,18.63,0,0,1-9.57,2.62A17.51,17.51,0,0,1,449.77,86.07Z"/><path class="cls-1" d="M477.37,79.92l10-7.9,7,9.11-10,7.9Z"/></g></g></svg>