<?xml version="1.0" encoding="utf-8"?>
<!-- Generator: Adobe Illustrator 22.0.0, SVG Export Plug-In . SVG Version: 6.00 Build 0)  -->
<svg version="1.1" id="Layer_1" xmlns="http://www.w3.org/2000/svg" xmlns:xlink="http://www.w3.org/1999/xlink" x="0px" y="0px"
	 width="30px" height="30px" viewBox="0 0 30 30" style="enable-background:new 0 0 30 30;" xml:space="preserve">
<style type="text/css">
	.st0{fill:#FFFFFF;}
</style>
<g id="Page-1_4_">
	<g id="Instagram_1_">
		<g id="Group_3_" transform="translate(4.000000, 4.000000)">
			<path id="Shape_10_" class="st0" d="M17.7-4H4.3C-0.3-4-4-0.3-4,4.3v13.5c0,4.6,3.7,8.3,8.3,8.3h13.5c4.6,0,8.3-3.7,8.3-8.3V4.4
				C26-0.2,22.3-4,17.7-4z M23.3,17.7c0,3.1-2.6,5.6-5.6,5.6H4.3c-3.1,0-5.6-2.6-5.6-5.6V4.4c0-3.1,2.6-5.6,5.6-5.6h13.5
				c3.1,0,5.6,2.6,5.6,5.6V17.7L23.3,17.7z"/>
			<path id="Shape_8_" class="st0" d="M11,3.3c-4.3,0-7.8,3.5-7.8,7.8s3.5,7.8,7.8,7.8s7.8-3.5,7.8-7.8S15.3,3.3,11,3.3z M11,16.1
				c-2.8,0-5.1-2.2-5.1-5.1c0-2.8,2.2-5.1,5.1-5.1s5.1,2.2,5.1,5.1S13.8,16.1,11,16.1z"/>
			<path id="Shape_7_" class="st0" d="M19.1,1c-0.5,0-1,0.2-1.4,0.6S17,2.5,17,3s0.2,1,0.6,1.4c0.4,0.4,0.9,0.6,1.4,0.6
				s1-0.2,1.4-0.6c0.4-0.4,0.6-0.9,0.6-1.4s-0.2-1-0.6-1.4S19.6,1,19.1,1z"/>
		</g>
	</g>
</g>
</svg>
