<svg xmlns="http://www.w3.org/2000/svg" width="20" height="16.192" viewBox="0 0 20 16.192">
  <g id="Page-1_2_" transform="translate(-0.1 -4.9)">
    <g id="Twitter_1_" transform="translate(0.1 4.9)">
      <path id="Shape_2_" d="M20.1,6.784a7.64,7.64,0,0,1-2.365.641,4.328,4.328,0,0,0,1.8-2.244,8.571,8.571,0,0,1-2.605,1A4.111,4.111,0,0,0,9.839,8.948a3.416,3.416,0,0,0,.12.922,11.548,11.548,0,0,1-8.5-4.248A4.016,4.016,0,0,0,.9,7.666a4.113,4.113,0,0,0,1.844,3.407,4.266,4.266,0,0,1-1.884-.521v.04A4.117,4.117,0,0,0,4.148,14.6a5.045,5.045,0,0,1-1.082.16,4.439,4.439,0,0,1-.762-.08,4.158,4.158,0,0,0,3.848,2.846,8.329,8.329,0,0,1-5.09,1.764,7.723,7.723,0,0,1-.962-.04,11.589,11.589,0,0,0,6.293,1.844A11.56,11.56,0,0,0,18.1,9.509V8.988A10.5,10.5,0,0,0,20.1,6.784Z" transform="translate(-0.1 -4.9)" fill="#fff"/>
    </g>
  </g>
</svg>
