<svg id="Page-1_4_" xmlns="http://www.w3.org/2000/svg" width="16" height="16" viewBox="0 0 16 16">
  <g id="Instagram_1_">
    <g id="Group_2_">
      <path id="Shape_9_" d="M7.584-4H.416A4.425,4.425,0,0,0-4,.416V7.584A4.425,4.425,0,0,0,.416,12H7.584A4.425,4.425,0,0,0,12,7.584V.416A4.425,4.425,0,0,0,7.584-4ZM10.592,7.584a3,3,0,0,1-3.008,3.008H.416A3,3,0,0,1-2.592,7.584V.416A3,3,0,0,1,.416-2.592H7.584A3,3,0,0,1,10.592.416V7.584Z" transform="translate(4 4)" fill="#fff"/>
      <path id="Shape_8_" d="M12.228,8.1a4.128,4.128,0,1,0,4.128,4.128A4.138,4.138,0,0,0,12.228,8.1Zm0,6.816a2.688,2.688,0,1,1,2.688-2.688A2.684,2.684,0,0,1,12.228,14.916Z" transform="translate(-4.228 -4.228)" fill="#fff"/>
      <path id="Shape_7_" d="M32.156,4.4a.927.927,0,0,0-.736.32,1.042,1.042,0,0,0-.32.736.927.927,0,0,0,.32.736,1.042,1.042,0,0,0,.736.32.927.927,0,0,0,.736-.32,1.042,1.042,0,0,0,.32-.736.927.927,0,0,0-.32-.736A.927.927,0,0,0,32.156,4.4Z" transform="translate(-19.868 -1.712)" fill="#fff"/>
    </g>
  </g>
</svg>
