<?xml version="1.0" encoding="utf-8"?>
<!-- Generator: Adobe Illustrator 22.0.0, SVG Export Plug-In . SVG Version: 6.00 Build 0)  -->
<svg version="1.1" id="Layer_1" xmlns="http://www.w3.org/2000/svg" xmlns:xlink="http://www.w3.org/1999/xlink" x="0px" y="0px"
	 width="30px" height="30px" viewBox="0 0 30 30" style="enable-background:new 0 0 30 30;" xml:space="preserve">
<style type="text/css">
	.st0{fill:#FFFFFF;}
</style>
<g id="Page-1_3_">
	<g id="Twitter_1_">
		<path id="Shape_5_" class="st0" d="M30,5.7c-1.1,0.5-2.3,0.8-3.5,1c1.2-0.7,2.2-2,2.7-3.4c-1.1,0.7-2.5,1.2-3.9,1.5
			c-1.1-1.2-2.7-2-4.5-2c-3.4,0-6.1,2.7-6.1,6.1c0,0.5,0.1,1,0.2,1.4C9.7,10.1,5.2,7.7,2.1,4C1.6,4.9,1.3,6,1.3,7
			c0,2.1,1.1,4,2.7,5.1c-1,0-2-0.3-2.8-0.7v0.1c0,3,2.1,5.4,4.9,6c-0.5,0.2-1.1,0.2-1.6,0.2c-0.4,0-0.8,0-1.1-0.1
			c0.8,2.5,3,4.2,5.7,4.3c-2.1,1.6-4.8,2.6-7.6,2.6c-0.5,0-1,0-1.5-0.1c2.7,1.7,6,2.7,9.4,2.7c11.3,0,17.5-9.3,17.5-17.4
			c0-0.2,0-0.5,0-0.8C28.1,8,29.2,7,30,5.7z"/>
	</g>
</g>
</svg>
