<svg xmlns="http://www.w3.org/2000/svg" width="19.409" height="18.4" viewBox="0 0 19.409 18.4">
  <g id="Page-1_3_" transform="translate(0 -1.3)">
    <g id="Linkedin_1_" transform="translate(0 1.3)">
      <g id="Group_1_">
        <rect id="Rectangle-path_1_" width="4.154" height="12.422" transform="translate(0.233 5.978)" fill="#fff"/>
        <path id="Shape_5_" d="M23.613,12.336A4.589,4.589,0,0,0,20.119,10.9a5.355,5.355,0,0,0-1.436.194,2.86,2.86,0,0,0-1.087.543,3.9,3.9,0,0,0-.7.66c-.155.194-.349.427-.5.66V11.172H12.239v4.348c0,2.057,0,4.775-.039,8.113h4.192v-6.91a2.392,2.392,0,0,1,.155-1.009,2.775,2.775,0,0,1,.815-1.087,2.149,2.149,0,0,1,1.32-.427,1.763,1.763,0,0,1,1.592.738,3.592,3.592,0,0,1,.5,2.057v6.638h4.154v-7.1A5.908,5.908,0,0,0,23.613,12.336Z" transform="translate(-5.523 -5.232)" fill="#fff"/>
        <path id="Shape_4_" d="M-2.632-3.7a2.317,2.317,0,0,0-1.708.621A2.05,2.05,0,0,0-5-1.526,1.936,1.936,0,0,0-4.379-.012,2.225,2.225,0,0,0-2.71.609h.039A2.317,2.317,0,0,0-.963-.012,1.942,1.942,0,0,0-.342-1.565,2.111,2.111,0,0,0-1-3.118,2.2,2.2,0,0,0-2.632-3.7Z" transform="translate(5 3.7)" fill="#fff"/>
      </g>
    </g>
  </g>
</svg>
