<?xml version="1.0" encoding="utf-8"?>
<!-- Generator: Adobe Illustrator 22.0.0, SVG Export Plug-In . SVG Version: 6.00 Build 0)  -->
<svg version="1.1" id="Layer_1" xmlns="http://www.w3.org/2000/svg" xmlns:xlink="http://www.w3.org/1999/xlink" x="0px" y="0px"
	 width="30px" height="30px" viewBox="0 0 30 30" style="enable-background:new 0 0 30 30;" xml:space="preserve">
<style type="text/css">
	.st0{fill:#FFFFFF;}
</style>
<g id="Page-1_5_">
	<g id="Linkedin_1_">
		<g id="Group_2_" transform="translate(5.000000, 5.000000)">
			<rect id="Rectangle-path_1_" x="-4.7" y="5" class="st0" width="6.5" height="19.3"/>
			<path id="Shape_9_" class="st0" d="M23,6.7c-1.4-1.5-3.2-2.2-5.4-2.2c-0.8,0-1.6,0.1-2.2,0.3c-0.7,0.2-1.3,0.5-1.7,0.9
				c-0.5,0.4-0.9,0.7-1.1,1c-0.3,0.3-0.5,0.7-0.8,1.1V5H5.4v1c0,0.6,0,2.5,0,5.7s0,7.4,0,12.6h6.4V13.5c0-0.7,0.1-1.2,0.2-1.6
				c0.3-0.7,0.7-1.3,1.3-1.6c0.6-0.5,1.3-0.7,2-0.7c1.2,0,1.9,0.4,2.5,1.2c0.5,0.8,0.8,1.8,0.8,3.2v10.3H25V13.3
				C25.1,10.4,24.4,8.2,23,6.7z"/>
			<path id="Shape_6_" class="st0" d="M-1.4-4.3c-1.1,0-1.9,0.3-2.6,1c-0.7,0.6-1,1.5-1,2.4s0.3,1.7,1,2.3c0.7,0.7,1.6,1,2.6,1l0,0
				c1.1,0,1.9-0.3,2.6-1s1-1.5,1-2.3c0-1-0.4-1.7-1-2.4C0.5-4-0.3-4.3-1.4-4.3z"/>
		</g>
	</g>
</g>
</svg>
