<svg xmlns="http://www.w3.org/2000/svg" width="8.28" height="18" viewBox="0 0 8.28 18">
  <g id="Page-1_1_" transform="translate(-13.5)">
    <g id="Facebook_1_" transform="translate(13.5)">
      <path id="Shape_1_" d="M19.008,5.9V4.356a2.384,2.384,0,0,1,.036-.54,1.078,1.078,0,0,1,.144-.36.552.552,0,0,1,.36-.252,3.313,3.313,0,0,1,.684-.072H21.78V0H19.332a3.968,3.968,0,0,0-3.06,1.008,4.405,4.405,0,0,0-.936,3.024V5.9H13.5V9h1.836v9h3.672V9h2.448l.324-3.1Z" transform="translate(-13.5)" fill="#fff"/>
    </g>
  </g>
</svg>
