<svg xmlns="http://www.w3.org/2000/svg" xmlns:xlink="http://www.w3.org/1999/xlink" viewBox="0 0 394.71 292.36"><defs><style>.cls-1{fill:url(#linear-gradient);}.cls-2,.cls-3,.cls-5{fill:none;}.cls-2{stroke:#ef423b;}.cls-2,.cls-3,.cls-4,.cls-5{stroke-linecap:round;stroke-linejoin:round;}.cls-2,.cls-4{stroke-width:5px;}.cls-3,.cls-4,.cls-5{stroke:#0c172d;}.cls-3{stroke-width:4.68px;}.cls-4{fill:#ef423b;}.cls-5{stroke-width:4.55px;}</style><linearGradient id="linear-gradient" x1="5.08" y1="146.18" x2="394.71" y2="146.18" gradientUnits="userSpaceOnUse"><stop offset="0" stop-color="#e6e7e8"/><stop offset="1" stop-color="#e0dfdf"/></linearGradient></defs><title>content</title><g id="Layer_2" data-name="Layer 2"><g id="Layer_2-2" data-name="Layer 2"><path class="cls-1" d="M218.62.11c75.59-2.83,119.26,50.4,119.29,50.44,6.67,8.13,14.82,15,21.34,23.42,14.19,18.28,25.68,39.07,31.58,61.54,15.84,60.31-18.45,125.39-74.51,151.06-40,18.32-89.06-9.77-112-43.07-3.63-5.26-6.56-11-10.2-16.25-12.75-18.49-33-28.67-54.92-31.33-13.18-1.6-26.17,1.54-39.34,3.2C85.24,201,70.61,202.41,55.93,203c-9.2.34-18.66.3-27.29-2.92C11.56,193.68,5,173.57,5.08,156.71c.08-19.22,8-38,18.5-53.82C44,72.2,76.89,50.28,108,31.56,142.65,10.67,178.22,1.63,218.62.11Z"/><path class="cls-2" d="M53.42,195.24c0,.3,0,.61,0,.91-.82,16.92-26.44,16.92-27.26,0,0-.3,0-.61,0-.91a18.45,18.45,0,0,1,13.65-17.83A18.46,18.46,0,0,1,53.42,195.24Z"/><line class="cls-2" x1="320.74" y1="115.2" x2="346.09" y2="115.2"/><line class="cls-2" x1="302.47" y1="237.92" x2="346.09" y2="237.92"/><line class="cls-2" x1="221.11" y1="185.11" x2="234.98" y2="198.99"/><line class="cls-2" x1="280.92" y1="199.19" x2="243.93" y2="162.2"/><line class="cls-2" x1="256.89" y1="199.19" x2="231.94" y2="174.25"/><line class="cls-2" x1="280.92" y1="175.16" x2="255.9" y2="150.14"/><line class="cls-2" x1="280.92" y1="154.68" x2="266.1" y2="139.87"/><line class="cls-3" x1="256.56" y1="260.87" x2="280.07" y2="260.87"/><polygon class="cls-3" points="135.91 260.87 135.91 148.93 207 148.93 207 260.87 150.9 260.87 135.91 260.87"/><path class="cls-3" d="M191.15,260.87V207.35a19.69,19.69,0,0,0-19.7-19.69h0a19.69,19.69,0,0,0-19.69,19.69v53.52"/><line class="cls-2" x1="62.37" y1="188.2" x2="117.03" y2="188.2"/><line class="cls-2" x1="62.37" y1="154.23" x2="117.03" y2="154.23"/><path class="cls-3" d="M145.79,148.93V131a25.66,25.66,0,0,1,25.66-25.66h0A25.66,25.66,0,0,1,197.12,131v18"/><rect class="cls-3" x="206.92" y="199.19" width="74" height="61.67"/><path class="cls-4" d="M217.7,244V226.45a10.36,10.36,0,0,1,10.35-10.35h0a10.35,10.35,0,0,1,10.34,10.35V244Z"/><path class="cls-4" d="M249.45,244V226.45A10.35,10.35,0,0,1,259.8,216.1h0a10.35,10.35,0,0,1,10.34,10.35V244Z"/><rect class="cls-3" x="61.9" y="199.19" width="74" height="61.67"/><path class="cls-4" d="M72.69,244V226.45A10.35,10.35,0,0,1,83,216.1h0a10.35,10.35,0,0,1,10.35,10.35V244Z"/><path class="cls-4" d="M104.43,244V226.45a10.36,10.36,0,0,1,10.35-10.35h0a10.35,10.35,0,0,1,10.34,10.35V244Z"/><rect class="cls-4" x="159.94" y="117.32" width="23.37" height="23.37" rx="11.69" ry="11.69"/><line class="cls-3" x1="39.77" y1="260.87" x2="39.77" y2="208.84"/><line class="cls-3" x1="39.77" y1="208.84" x2="39.77" y2="192.7"/><path class="cls-3" d="M106,87.52a19.25,19.25,0,0,1-.19-2.75,20.21,20.21,0,1,1,40.41,0,19.57,19.57,0,0,1-.1,2"/><path class="cls-3" d="M145.79,123.4c-.48,0-1,.06-1.45.06"/><path class="cls-3" d="M146.07,86.8a18.36,18.36,0,0,1,16.65,18.29v.2"/><path class="cls-3" d="M78.47,105.64a19.42,19.42,0,0,1-.21-2.77A18.1,18.1,0,0,1,106,87.52"/><line class="cls-3" x1="144.34" y1="123.46" x2="114.47" y2="123.46"/><path class="cls-3" d="M206.64,199.19c.58-.23,5.16-4.79,11.92-11.53,20.91-20.88,62.36-62.75,62.36-62.75v74.28Z"/><rect class="cls-3" x="61.9" y="143.74" width="55.45" height="55.45"/><rect class="cls-5" x="323.81" y="85.72" width="22.28" height="8.16"/><polyline class="cls-3" points="2.61 14.89 2.61 260.87 238.56 260.87"/><line class="cls-3" x1="17.63" y1="22.4" x2="17.63" y2="260.93"/><polyline class="cls-3" points="346.09 94.55 346.09 260.87 299.06 260.87 323.81 94.55"/><path class="cls-5" d="M334.95,57.73h0a11.14,11.14,0,0,1,11.14,11.14V85.72a0,0,0,0,1,0,0H323.81a0,0,0,0,1,0,0V68.87a11.14,11.14,0,0,1,11.14-11.14Z"/><line class="cls-2" x1="317" y1="86.7" x2="291.38" y2="112.32"/><line class="cls-2" x1="313.4" y1="71.72" x2="295.28" y2="71.72"/><line class="cls-2" x1="280.69" y1="71.72" x2="273.51" y2="71.72"/><line class="cls-2" x1="320.74" y1="53.16" x2="312.03" y2="44.46"/><line class="cls-2" x1="334.44" y1="49.57" x2="334.44" y2="7.38"/><path class="cls-2" d="M205.44,22.4H10a7.49,7.49,0,0,1-5.31-2.2h0A7.51,7.51,0,0,1,10,7.38H249.09"/><path class="cls-3" d="M228.41,23.52a25.65,25.65,0,0,1,46-3.43"/><path class="cls-3" d="M274.38,20.09A18.13,18.13,0,0,1,276.6,20a18.4,18.4,0,0,1,0,36.8"/><path class="cls-3" d="M228.41,23.52a18.4,18.4,0,0,0-28.25,20.94"/></g></g></svg>