<svg xmlns="http://www.w3.org/2000/svg" xmlns:xlink="http://www.w3.org/1999/xlink" viewBox="0 0 414.48 312.36"><defs><style>.cls-1{fill:url(#linear-gradient);}.cls-2,.cls-4,.cls-5,.cls-6{fill:none;}.cls-2,.cls-5{stroke:#ef423b;}.cls-2,.cls-3,.cls-4,.cls-5,.cls-6,.cls-7,.cls-8,.cls-9{stroke-linecap:round;stroke-linejoin:round;}.cls-2,.cls-3,.cls-4,.cls-5,.cls-6,.cls-7{stroke-width:5px;}.cls-2,.cls-6,.cls-7,.cls-9{fill-rule:evenodd;}.cls-3,.cls-7,.cls-8,.cls-9{fill:#ef423b;}.cls-3,.cls-4,.cls-6,.cls-7,.cls-8,.cls-9{stroke:#0c172d;}.cls-8,.cls-9{stroke-width:5.42px;}.cls-10{fill:#0c172d;}</style><linearGradient id="linear-gradient" y1="156.18" x2="381.52" y2="156.18" gradientUnits="userSpaceOnUse"><stop offset="0" stop-color="#e6e7e8"/><stop offset="1" stop-color="#e0dfdf"/></linearGradient></defs><title>digital-experiences</title><g id="Layer_2" data-name="Layer 2"><g id="Layer_2-2" data-name="Layer 2"><path class="cls-1" d="M64.25,2.71a44.54,44.54,0,0,0-6.6,4,138.3,138.3,0,0,0-23,21.07,146.32,146.32,0,0,0-17,23.45A134,134,0,0,0,5.82,77.52,120.3,120.3,0,0,0,.55,102.76a128.7,128.7,0,0,0,2,37.26c17.66,89,124.36,141.32,124.36,141.32s108.1,56.53,195,17c37.31-17,57.66-50.93,59.47-91.21.66-14.79-1.6-29.52-4.71-43.93-3.26-15.09-9.17-27.46-23.52-34.46-14.1-6.88-30.72-7.49-46.08-6.34-66.41,4.94-89,9.18-125.77-38.86C158.65,53.84,137.93,10,97.72,1.9A94.75,94.75,0,0,0,82.42,0a74,74,0,0,0-7.74.23,28.16,28.16,0,0,0-8.12,1.47L65.94,2C65.37,2.2,64.81,2.45,64.25,2.71Z"/><path class="cls-2" d="M262.45,165h44.42A35.13,35.13,0,0,1,342,200.17h0a35.12,35.12,0,0,0,35.12,35.12h0A34.86,34.86,0,0,0,412,200.43V165.31H351.57V119.62"/><polyline class="cls-3" points="200.62 132.8 200.62 154.11 221.81 154.11"/><path class="cls-2" d="M131.45,113.87v-3.5a18.58,18.58,0,0,0-18.58-18.58h0A28.34,28.34,0,0,1,84.53,63.45V60.27"/><path class="cls-2" d="M141.7,113.87V89.57a10.78,10.78,0,0,0-10.78-10.78h0a5.28,5.28,0,0,1-5.28-5.28V50"/><path class="cls-2" d="M153,113.87V89.77a16.91,16.91,0,0,1,16.92-16.92h0a16.91,16.91,0,0,0,16.91-16.92V50"/><path class="cls-2" d="M164.2,113.87h0a24.08,24.08,0,0,1,24.08-24.08h22.29a6.62,6.62,0,0,0,6.63-6.62h0a6.63,6.63,0,0,1,6.62-6.63h9.61A26.49,26.49,0,0,0,259.93,50h0"/><path class="cls-4" d="M132,263.19H189.6a11.19,11.19,0,0,1,11.19,11.19v6.48a0,0,0,0,1,0,0H120.86a0,0,0,0,1,0,0v-6.48A11.19,11.19,0,0,1,132,263.19Z"/><rect class="cls-4" x="145.05" y="243.84" width="31.55" height="19.35"/><rect class="cls-4" x="68.5" y="113.87" width="184.65" height="129.97" rx="14.67" ry="14.67"/><polygon class="cls-4" points="221.81 154.11 221.81 215.63 99.83 215.63 99.83 132.8 200.62 132.8 221.81 154.11"/><line class="cls-4" x1="68.5" y1="215.5" x2="250.66" y2="215.5"/><line class="cls-4" x1="68.5" y1="280.86" x2="304.45" y2="280.86"/><line class="cls-5" x1="322.45" y1="280.86" x2="374.7" y2="280.86"/><line class="cls-4" x1="390.2" y1="280.86" x2="411.45" y2="280.86"/><line class="cls-5" x1="411.98" y1="117.5" x2="411.98" y2="65.25"/><line class="cls-5" x1="411.98" y1="49.75" x2="411.98" y2="28.5"/><polyline class="cls-6" points="253.15 155.29 262.45 155.29 262.45 174.21 253.15 174.21"/><path class="cls-6" d="M324.57,98.6V40.48a13.11,13.11,0,0,1,13.11-13.11h27.79a13.1,13.1,0,0,1,13.1,13.11V98.6c0,9.27-7.5,16.77-16.77,15.27H341.35C332.08,115.37,324.57,107.87,324.57,98.6Z"/><path class="cls-7" d="M139.3,183.81l13.48,13.48,36.67-36.67a4.47,4.47,0,0,0,0-6.33h0a4.47,4.47,0,0,0-6.33,0L153.45,184l-7.15-7.15a5,5,0,0,0-7,0h0A4.94,4.94,0,0,0,139.3,183.81Z"/><polyline class="cls-6" points="347.03 115.38 347.03 119.63 356.12 119.63 356.12 115.38"/><line class="cls-4" x1="324.57" y1="98.6" x2="378.56" y2="98.6"/><line class="cls-4" x1="324.57" y1="42.46" x2="378.57" y2="42.46"/><polyline class="cls-2" points="338.16 72.67 346.34 80.85 365.09 62.1"/><polyline class="cls-6" points="306.04 255.21 292.48 268.77 304.56 280.86"/><polyline class="cls-2" points="320.79 255.21 334.36 268.77 322.27 280.86"/><rect class="cls-3" x="247.95" y="27.37" width="22.67" height="22.67"/><rect class="cls-3" x="73.19" y="32.06" width="22.67" height="22.67" transform="translate(-5.93 72.48) rotate(-45)"/><circle class="cls-8" cx="186.78" cy="38.71" r="11.34"/><polygon class="cls-9" points="112.29 49.6 138.99 49.6 125.64 26.93 112.29 49.6"/><line class="cls-5" x1="256.26" y1="113.87" x2="270.62" y2="113.87"/><line class="cls-5" x1="281.15" y1="113.87" x2="295.52" y2="113.87"/><line class="cls-5" x1="306.4" y1="113.87" x2="320.77" y2="113.87"/><circle class="cls-10" cx="377.12" cy="199.46" r="7.12"/></g></g></svg>