<svg xmlns="http://www.w3.org/2000/svg" xmlns:xlink="http://www.w3.org/1999/xlink" viewBox="0 0 399.27 294.7"><defs><style>.cls-1{fill:url(#linear-gradient);}.cls-10,.cls-2,.cls-4,.cls-6,.cls-9{fill:none;}.cls-2,.cls-6{stroke:#ef423b;}.cls-10,.cls-2,.cls-3,.cls-4,.cls-5,.cls-6,.cls-7,.cls-9{stroke-linecap:round;stroke-linejoin:round;}.cls-10,.cls-2,.cls-4,.cls-5,.cls-6{stroke-width:5px;}.cls-3,.cls-5,.cls-7{fill:#ef423b;}.cls-10,.cls-3,.cls-4,.cls-5,.cls-7,.cls-9{stroke:#0c172d;}.cls-3,.cls-9{stroke-width:4.68px;}.cls-10,.cls-3,.cls-6,.cls-7{fill-rule:evenodd;}.cls-7{stroke-width:4.62px;}.cls-8{fill:#0c172d;}</style><linearGradient id="linear-gradient" y1="147.35" x2="399.27" y2="147.35" gradientUnits="userSpaceOnUse"><stop offset="0" stop-color="#e6e7e8"/><stop offset="1" stop-color="#e0dfdf"/></linearGradient></defs><title>branding</title><g id="Layer_2" data-name="Layer 2"><g id="Layer_2-2" data-name="Layer 2"><path class="cls-1" d="M361.25,13.63C403.39,41,399.16,76.81,399.16,76.81s-.94,38.37-37.91,81.42S250.35,280.36,155.83,292.06,36,272.87,36,272.87-.46,253.22,0,203.62s48.2-75.34,48.2-75.34,15-8.42,76.28-24.33S211,75.4,240.52,47.79,306.5-21.93,361.25,13.63Z"/><line class="cls-2" x1="128.92" y1="135.97" x2="149.81" y2="158.2"/><line class="cls-2" x1="335.98" y1="116.13" x2="357.54" y2="116.13"/><polyline class="cls-3" points="335.98 102.35 346.76 70.6 357.54 102.35"/><line class="cls-4" x1="36.71" y1="265.03" x2="174.69" y2="265.03"/><line class="cls-2" x1="233.85" y1="265.03" x2="269.26" y2="265.03"/><line class="cls-4" x1="14.06" y1="218.3" x2="14.06" y2="239.55"/><rect class="cls-2" x="208.75" y="102.35" width="50.21" height="50.21"/><rect class="cls-5" x="220.97" y="114.57" width="25.78" height="25.78"/><rect class="cls-2" x="208.75" y="177.58" width="50.21" height="50.21" transform="translate(-74.83 224.73) rotate(-45)"/><rect class="cls-5" x="220.97" y="189.8" width="25.78" height="25.78" transform="translate(-74.83 224.73) rotate(-45)"/><circle class="cls-5" cx="175.37" cy="240.26" r="12.89"/><polygon class="cls-6" points="256.91 265.03 316.19 265.03 286.55 214.67 256.91 265.03"/><polygon class="cls-7" points="272.25 256.32 300.86 256.32 286.55 232.02 272.25 256.32"/><path class="cls-4" d="M16,263h0a7.08,7.08,0,0,1,.06-9.77L134.28,130.65a11.15,11.15,0,0,1,16,.29l5.89,6.26a11.16,11.16,0,0,1-.71,16L25.79,263.51A7.08,7.08,0,0,1,16,263Z"/><path class="cls-4" d="M184,127.73l12.16-18.46-16.06-.5-15.06-.47c-13.1-.41-21,14.91-12.59,25,.23.27.47.55.72.81s.51.52.77.77c8.19,7.77,21.55,5.82,27.76-3.61Z"/><circle class="cls-5" cx="159.91" cy="127.76" r="9.2"/><circle class="cls-8" cx="233.85" cy="46.27" r="7.12"/><path class="cls-9" d="M336,102.35h21.56a0,0,0,0,1,0,0v152a10.78,10.78,0,0,1-10.78,10.78h0A10.78,10.78,0,0,1,336,254.31v-152A0,0,0,0,1,336,102.35Z"/><path class="cls-2" d="M346.76,59.52V52.6A41.06,41.06,0,0,0,305.7,11.54h0a33.62,33.62,0,0,0-33.62,33.62h0a33.62,33.62,0,0,1-33.62,33.62h-8.64A33.62,33.62,0,0,1,196.2,45.16h0a33.62,33.62,0,0,0-33.62-33.62H70.73"/><polyline class="cls-10" points="30.66 51.61 30.66 28.14 54.14 28.14"/><polyline class="cls-10" points="87.34 28.14 110.81 28.14 110.81 51.61 110.81 84.81 110.81 108.29 87.34 108.29 54.14 108.29 30.66 108.29 30.66 84.81"/><polyline class="cls-6" points="110.81 84.81 127.41 68.21 110.81 51.61 87.34 28.14 70.74 11.54 54.14 28.14 30.66 51.61 14.06 68.21 30.66 84.81 54.14 108.29 70.74 124.89 87.34 108.29"/><path class="cls-6" d="M76.18,119.45,31.77,163.86a60.27,60.27,0,0,0-17.65,42.62h0"/><circle class="cls-2" cx="174.69" cy="240.26" r="24.94"/></g></g></svg>