<svg xmlns="http://www.w3.org/2000/svg" width="138.499" height="138.5" viewBox="0 0 138.499 138.5">
  <g id="Group_4" data-name="Group 4" transform="translate(-843.812 -257.811)" opacity="0.03">
    <g id="Group_2" data-name="Group 2" transform="translate(843.812 257.811)">
      <path id="Path_12" data-name="Path 12" d="M885.76,293.4a22.752,22.752,0,0,1,4.5-8.093,22.757,22.757,0,0,1,4.5,8.093,22.755,22.755,0,0,1,8.905-2.539,22.758,22.758,0,0,1-2.541,8.9,22.758,22.758,0,0,1,8.093,4.5,22.754,22.754,0,0,1-8.093,4.5,22.757,22.757,0,0,1,2.541,8.905,22.755,22.755,0,0,1-8.905-2.541,22.757,22.757,0,0,1-4.5,8.093,22.752,22.752,0,0,1-4.5-8.093,22.756,22.756,0,0,1-8.905,2.541,22.783,22.783,0,0,1,2.541-8.905,22.753,22.753,0,0,1-8.093-4.5,22.757,22.757,0,0,1,8.093-4.5,22.784,22.784,0,0,1-2.541-8.9A22.756,22.756,0,0,1,885.76,293.4Z" transform="translate(-821.012 -235.012)" fill="#ee4137"/>
      <g id="Group_1" data-name="Group 1">
        <path id="Path_13" data-name="Path 13" d="M880.706,286.257c-3.139-4.581-6.723-9.214-9.631-14.24-2.418-4.18-1.925-8.58,2.045-11.794a9.5,9.5,0,0,1,12.156-.415c4.229,3,5.3,7.42,3.064,12.128C886.026,276.816,883.273,281.486,880.706,286.257Z" transform="translate(-822.419 -257.811)" fill="#ee4137"/>
        <path id="Path_14" data-name="Path 14" d="M872.463,294.156c-5.457-1.021-11.269-1.763-16.877-3.26-4.667-1.244-7.429-4.705-6.893-9.785a9.505,9.505,0,0,1,8.3-8.889c5.11-.873,8.995,1.5,10.746,6.408C869.55,283.718,870.9,288.967,872.463,294.156Z" transform="translate(-839.819 -246.007)" fill="#ee4137"/>
        <path id="Path_15" data-name="Path 15" d="M872.255,305.638c-4.579,3.137-9.213,6.721-14.238,9.63-4.18,2.42-8.58,1.925-11.794-2.045a9.5,9.5,0,0,1-.415-12.154c3-4.229,7.42-5.3,12.128-3.066C862.815,300.316,867.486,303.071,872.255,305.638Z" transform="translate(-843.812 -225.424)" fill="#ee4137"/>
        <path id="Path_16" data-name="Path 16" d="M880.156,315.677c-1.021,5.457-1.764,11.269-3.26,16.879-1.244,4.667-4.7,7.427-9.785,6.891a9.5,9.5,0,0,1-8.889-8.3c-.873-5.109,1.5-8.995,6.408-10.744C869.718,318.591,874.967,317.236,880.156,315.677Z" transform="translate(-832.008 -209.821)" fill="#ee4137"/>
        <path id="Path_17" data-name="Path 17" d="M891.638,317.973c3.137,4.579,6.721,9.213,9.63,14.238,2.42,4.182,1.924,8.581-2.045,11.794a9.5,9.5,0,0,1-12.154.417c-4.231-3-5.3-7.42-3.066-12.13C886.317,327.414,889.07,322.744,891.638,317.973Z" transform="translate(-811.425 -207.917)" fill="#ee4137"/>
        <path id="Path_18" data-name="Path 18" d="M901.677,307.2c5.457,1.019,11.268,1.762,16.879,3.258,4.667,1.246,7.427,4.707,6.891,9.785a9.5,9.5,0,0,1-8.3,8.889c-5.109.873-8.995-1.5-10.744-6.408C904.591,317.64,903.236,312.39,901.677,307.2Z" transform="translate(-795.822 -216.85)" fill="#ee4137"/>
        <path id="Path_19" data-name="Path 19" d="M903.973,294.706c4.579-3.139,9.213-6.723,14.238-9.632,4.182-2.418,8.581-1.924,11.794,2.045a9.507,9.507,0,0,1,.417,12.156c-3,4.23-7.42,5.3-12.13,3.064C913.414,300.026,908.744,297.273,903.973,294.706Z" transform="translate(-793.918 -236.419)" fill="#ee4137"/>
        <path id="Path_20" data-name="Path 20" d="M893.2,286.462c1.019-5.457,1.762-11.269,3.258-16.877,1.246-4.667,4.707-7.429,9.785-6.893a9.5,9.5,0,0,1,8.889,8.3c.873,5.109-1.5,8.995-6.408,10.746C903.64,283.55,898.39,284.9,893.2,286.462Z" transform="translate(-802.851 -253.819)" fill="#ee4137"/>
        <path id="Path_21" data-name="Path 21" d="M891.638,286.257c3.137-4.581,6.721-9.214,9.63-14.24,2.42-4.18,1.924-8.58-2.045-11.794a9.5,9.5,0,0,0-12.154-.415c-4.231,3-5.3,7.42-3.066,12.128C886.317,276.816,889.07,281.486,891.638,286.257Z" transform="translate(-811.425 -257.811)" fill="#ee4137"/>
        <path id="Path_22" data-name="Path 22" d="M880.156,286.462c-1.021-5.457-1.764-11.269-3.26-16.877-1.244-4.667-4.7-7.429-9.785-6.893a9.5,9.5,0,0,0-8.889,8.3c-.873,5.109,1.5,8.995,6.408,10.746C869.718,283.55,874.967,284.9,880.156,286.462Z" transform="translate(-832.008 -253.819)" fill="#ee4137"/>
        <path id="Path_23" data-name="Path 23" d="M872.255,294.706c-4.579-3.139-9.213-6.723-14.238-9.632-4.18-2.418-8.58-1.924-11.794,2.045a9.507,9.507,0,0,0-.415,12.156c3,4.23,7.42,5.3,12.128,3.064C862.815,300.026,867.486,297.273,872.255,294.706Z" transform="translate(-843.812 -236.419)" fill="#ee4137"/>
        <path id="Path_24" data-name="Path 24" d="M872.463,307.2c-5.457,1.019-11.269,1.762-16.877,3.258-4.667,1.246-7.429,4.707-6.893,9.785a9.505,9.505,0,0,0,8.3,8.889c5.11.873,8.995-1.5,10.746-6.408C869.55,317.64,870.9,312.39,872.463,307.2Z" transform="translate(-839.819 -216.85)" fill="#ee4137"/>
        <path id="Path_25" data-name="Path 25" d="M880.706,317.973c-3.139,4.579-6.723,9.213-9.631,14.238-2.418,4.182-1.925,8.581,2.045,11.794a9.507,9.507,0,0,0,12.156.417c4.229-3,5.3-7.42,3.064-12.13C886.026,327.414,883.273,322.744,880.706,317.973Z" transform="translate(-822.419 -207.917)" fill="#ee4137"/>
        <path id="Path_26" data-name="Path 26" d="M893.2,315.677c1.019,5.457,1.762,11.269,3.258,16.879,1.246,4.667,4.707,7.427,9.785,6.891a9.5,9.5,0,0,0,8.889-8.3c.873-5.109-1.5-8.995-6.408-10.744C903.64,318.591,898.39,317.236,893.2,315.677Z" transform="translate(-802.851 -209.821)" fill="#ee4137"/>
        <path id="Path_27" data-name="Path 27" d="M903.973,305.638c4.579,3.137,9.213,6.721,14.238,9.63,4.182,2.42,8.581,1.925,11.794-2.045a9.5,9.5,0,0,0,.417-12.154c-3-4.229-7.42-5.3-12.13-3.066C913.414,300.316,908.744,303.071,903.973,305.638Z" transform="translate(-793.918 -225.424)" fill="#ee4137"/>
        <path id="Path_28" data-name="Path 28" d="M901.677,294.156c5.457-1.021,11.268-1.763,16.879-3.26,4.667-1.244,7.427-4.705,6.891-9.785a9.5,9.5,0,0,0-8.3-8.889c-5.109-.873-8.995,1.5-10.744,6.408C904.591,283.718,903.236,288.967,901.677,294.156Z" transform="translate(-795.822 -246.007)" fill="#ee4137"/>
      </g>
    </g>
    <g id="Group_3" data-name="Group 3" transform="translate(873.93 287.931)">
      <path id="Path_29" data-name="Path 29" d="M881.123,290.349c-1.773-2.587-3.8-5.206-5.442-8.045a4.862,4.862,0,0,1,1.156-6.664,5.374,5.374,0,0,1,6.869-.236,5.12,5.12,0,0,1,1.732,6.855C884.131,285.014,882.574,287.652,881.123,290.349Z" transform="translate(-848.188 -274.276)" fill="#ee4137"/>
      <path id="Path_30" data-name="Path 30" d="M876.465,294.814c-3.082-.576-6.366-1-9.536-1.842a4.86,4.86,0,0,1-3.895-5.53,5.372,5.372,0,0,1,4.69-5.023,5.116,5.116,0,0,1,6.07,3.622C874.819,288.914,875.585,291.882,876.465,294.814Z" transform="translate(-858.02 -267.606)" fill="#ee4137"/>
      <path id="Path_31" data-name="Path 31" d="M876.348,301.3c-2.587,1.773-5.206,3.8-8.045,5.442a4.863,4.863,0,0,1-6.664-1.156,5.371,5.371,0,0,1-.236-6.867,5.116,5.116,0,0,1,6.854-1.732C871.014,298.3,873.652,299.85,876.348,301.3Z" transform="translate(-860.276 -255.975)" fill="#ee4137"/>
      <path id="Path_32" data-name="Path 32" d="M880.814,306.974c-.576,3.084-1,6.368-1.842,9.538a4.863,4.863,0,0,1-5.53,3.895,5.372,5.372,0,0,1-5.023-4.69,5.118,5.118,0,0,1,3.622-6.072C874.914,308.62,877.882,307.854,880.814,306.974Z" transform="translate(-853.606 -247.158)" fill="#ee4137"/>
      <path id="Path_33" data-name="Path 33" d="M887.3,308.271c1.773,2.589,3.8,5.206,5.442,8.047a4.86,4.86,0,0,1-1.156,6.662,5.369,5.369,0,0,1-6.867.236,5.116,5.116,0,0,1-1.732-6.855C884.3,313.605,885.85,310.967,887.3,308.271Z" transform="translate(-841.975 -246.083)" fill="#ee4137"/>
      <path id="Path_34" data-name="Path 34" d="M892.974,302.185c3.084.576,6.368,1,9.538,1.84a4.863,4.863,0,0,1,3.895,5.53,5.372,5.372,0,0,1-4.69,5.023,5.118,5.118,0,0,1-6.072-3.622C894.62,308.083,893.854,305.116,892.974,302.185Z" transform="translate(-833.158 -251.13)" fill="#ee4137"/>
      <path id="Path_35" data-name="Path 35" d="M894.271,295.123c2.589-1.773,5.206-3.8,8.047-5.442a4.86,4.86,0,0,1,6.663,1.156,5.372,5.372,0,0,1,.236,6.869,5.119,5.119,0,0,1-6.854,1.732C899.605,298.131,896.967,296.574,894.271,295.123Z" transform="translate(-832.083 -262.188)" fill="#ee4137"/>
      <path id="Path_36" data-name="Path 36" d="M888.185,290.465c.576-3.082,1-6.366,1.84-9.536a4.86,4.86,0,0,1,5.53-3.895,5.371,5.371,0,0,1,5.023,4.69,5.116,5.116,0,0,1-3.622,6.07C894.083,288.819,891.115,289.585,888.185,290.465Z" transform="translate(-837.13 -272.02)" fill="#ee4137"/>
      <path id="Path_37" data-name="Path 37" d="M887.3,290.349c1.773-2.587,3.8-5.206,5.442-8.045a4.862,4.862,0,0,0-1.156-6.664,5.372,5.372,0,0,0-6.867-.236,5.116,5.116,0,0,0-1.732,6.855C884.3,285.014,885.85,287.652,887.3,290.349Z" transform="translate(-841.975 -274.276)" fill="#ee4137"/>
      <path id="Path_38" data-name="Path 38" d="M880.814,290.465c-.576-3.082-1-6.366-1.842-9.536a4.86,4.86,0,0,0-5.53-3.895,5.37,5.37,0,0,0-5.023,4.69,5.117,5.117,0,0,0,3.622,6.07C874.914,288.819,877.882,289.585,880.814,290.465Z" transform="translate(-853.606 -272.02)" fill="#ee4137"/>
      <path id="Path_39" data-name="Path 39" d="M876.348,295.123c-2.587-1.773-5.206-3.8-8.045-5.442a4.863,4.863,0,0,0-6.664,1.156,5.374,5.374,0,0,0-.236,6.869,5.119,5.119,0,0,0,6.854,1.732C871.014,298.131,873.652,296.574,876.348,295.123Z" transform="translate(-860.276 -262.188)" fill="#ee4137"/>
      <path id="Path_40" data-name="Path 40" d="M876.465,302.185c-3.082.576-6.366,1-9.536,1.84a4.86,4.86,0,0,0-3.895,5.53,5.372,5.372,0,0,0,4.69,5.023,5.116,5.116,0,0,0,6.07-3.622C874.819,308.083,875.585,305.116,876.465,302.185Z" transform="translate(-858.02 -251.13)" fill="#ee4137"/>
      <path id="Path_41" data-name="Path 41" d="M881.123,308.271c-1.773,2.589-3.8,5.206-5.442,8.047a4.86,4.86,0,0,0,1.156,6.662,5.372,5.372,0,0,0,6.869.236,5.12,5.12,0,0,0,1.732-6.855C884.131,313.605,882.574,310.967,881.123,308.271Z" transform="translate(-848.188 -246.083)" fill="#ee4137"/>
      <path id="Path_42" data-name="Path 42" d="M888.185,306.974c.576,3.084,1,6.368,1.84,9.538a4.863,4.863,0,0,0,5.53,3.895,5.372,5.372,0,0,0,5.023-4.69,5.117,5.117,0,0,0-3.622-6.072C894.083,308.62,891.115,307.854,888.185,306.974Z" transform="translate(-837.13 -247.158)" fill="#ee4137"/>
      <path id="Path_43" data-name="Path 43" d="M894.271,301.3c2.589,1.773,5.206,3.8,8.047,5.442a4.86,4.86,0,0,0,6.663-1.156,5.369,5.369,0,0,0,.236-6.867,5.116,5.116,0,0,0-6.854-1.732C899.605,298.3,896.967,299.85,894.271,301.3Z" transform="translate(-832.083 -255.975)" fill="#ee4137"/>
      <path id="Path_44" data-name="Path 44" d="M892.974,294.814c3.084-.576,6.368-1,9.538-1.842a4.863,4.863,0,0,0,3.895-5.53,5.372,5.372,0,0,0-4.69-5.023,5.118,5.118,0,0,0-6.072,3.622C894.62,288.914,893.854,291.882,892.974,294.814Z" transform="translate(-833.158 -267.606)" fill="#ee4137"/>
    </g>
  </g>
</svg>
