<svg xmlns="http://www.w3.org/2000/svg" viewBox="0 0 234.67 234.67"><defs><style>.cls-1{fill:#fff;}</style></defs><title>light-icon</title><g id="Layer_2" data-name="Layer 2"><g id="Layer_1-2" data-name="Layer 1"><path class="cls-1" d="M117.34,49.57a67.76,67.76,0,1,0,67.75,67.77A67.77,67.77,0,0,0,117.34,49.57Z"/><path class="cls-1" d="M117.33,36.1a9,9,0,0,1-9-9V9a9,9,0,1,1,18,0v18A9,9,0,0,1,117.33,36.1Z"/><path class="cls-1" d="M51.45,65a9,9,0,0,1-6.32-2.7L32.31,49.55A9,9,0,0,1,45.13,36.82h0L57.76,49.55A9.07,9.07,0,0,1,51.45,65Z"/><path class="cls-1" d="M117.33,234.67a9,9,0,0,1-9-9v-18a9,9,0,1,1,18,0v18A9,9,0,0,1,117.33,234.67Z"/><path class="cls-1" d="M196,200.55a9,9,0,0,1-6.41-2.71L176.9,185.12a9,9,0,1,1,12.64-12.73l12.72,12.73A9,9,0,0,1,196,200.55Z"/><path class="cls-1" d="M225.64,126.36h-18a9,9,0,1,1,0-18h18a9,9,0,1,1,0,18Z"/><path class="cls-1" d="M178.71,60.47a9,9,0,0,1-6.32-15.34L185.12,32.4a9,9,0,0,1,13.71,11.74,8.41,8.41,0,0,1-1,1L185.12,57.76A9,9,0,0,1,178.71,60.47Z"/><path class="cls-1" d="M27.08,126.36H9a9,9,0,1,1,0-18h18a9,9,0,0,1,0,18Z"/><path class="cls-1" d="M43.14,205.06a9,9,0,0,1-6.32-15.52L49.55,176.9a9,9,0,1,1,14.18,11.18,9.53,9.53,0,0,1-1.45,1.46L49.55,202.35A9,9,0,0,1,43.14,205.06Z"/></g></g></svg>