<svg xmlns="http://www.w3.org/2000/svg" width="85" height="21.507" viewBox="0 0 85 21.507">
  <g id="slack" transform="translate(-0.7 -0.6)">
    <path id="Path_49" data-name="Path 49" d="M159.5,19.11l1.062-2.466a7.077,7.077,0,0,0,4.178,1.3c1.113,0,1.815-.428,1.815-1.079-.017-1.815-6.661-.394-6.712-4.949-.017-2.312,2.038-4.092,4.949-4.092a7.616,7.616,0,0,1,4.692,1.4l-.993,2.517a7.5,7.5,0,0,0-3.87-1.233c-.908,0-1.507.428-1.507.976.017,1.781,6.712.8,6.781,5.154,0,2.363-2,4.024-4.88,4.024A9.374,9.374,0,0,1,159.5,19.11m40.736-3.356a3.065,3.065,0,1,1,0-3.014l2.928-1.627a6.421,6.421,0,1,0,0,6.267l-2.928-1.627ZM171.366,2.5h3.664V20.428h-3.664Zm33.236,0V20.428h3.664V15.051l4.349,5.377h4.692l-5.531-6.387,5.12-5.959h-4.486l-4.144,4.949V2.5ZM185.921,15.788a3.379,3.379,0,0,1-2.86,1.524,3.065,3.065,0,0,1,0-6.13,3.381,3.381,0,0,1,2.86,1.575Zm0-7.705V9.538a4.317,4.317,0,0,0-3.647-1.712c-3.219,0-5.753,2.842-5.753,6.4s2.534,6.438,5.753,6.438a4.317,4.317,0,0,0,3.647-1.712v1.455h3.664V8.082Z" transform="translate(-131.608 -1.575)"/>
    <path id="Path_50" data-name="Path 50" d="M5.321,69.06A2.26,2.26,0,1,1,3.06,66.8h2.26Zm1.13,0a2.26,2.26,0,0,1,4.521,0v5.651a2.26,2.26,0,1,1-4.521,0Z" transform="translate(-0.083 -54.864)" fill="#e01e5a"/>
    <path id="Path_51" data-name="Path 51" d="M8.628,5.121a2.26,2.26,0,1,1,2.26-2.26v2.26Zm0,1.147a2.26,2.26,0,0,1,0,4.521H2.96a2.26,2.26,0,1,1,0-4.521Z" transform="translate(0 0)" fill="#36c5f0"/>
    <path id="Path_52" data-name="Path 52" d="M72.551,8.528a2.26,2.26,0,1,1,2.26,2.26h-2.26Zm-1.13,0a2.26,2.26,0,0,1-4.521,0V2.86a2.26,2.26,0,0,1,4.521,0Z" transform="translate(-54.864 0)" fill="#2eb67d"/>
    <path id="Path_53" data-name="Path 53" d="M69.16,72.451a2.26,2.26,0,1,1-2.26,2.26v-2.26Zm0-1.13a2.26,2.26,0,0,1,0-4.521h5.668a2.26,2.26,0,1,1,0,4.521Z" transform="translate(-54.864 -54.864)" fill="#ecb22e"/>
  </g>
</svg>
