<svg id="uber" xmlns="http://www.w3.org/2000/svg" width="49" height="17.01" viewBox="0 0 49 17.01">
  <path id="Path_45" data-name="Path 45" d="M2.819,12.149a4.19,4.19,0,0,0,.86,1.41,3.7,3.7,0,0,0,1.3.9,4.248,4.248,0,0,0,1.637.311,4.05,4.05,0,0,0,1.613-.323,3.967,3.967,0,0,0,1.314-.908,4.116,4.116,0,0,0,.872-1.4,5.049,5.049,0,0,0,.311-1.816V0h2.509V16.724H10.751V15.171A5.759,5.759,0,0,1,8.78,16.533a6.246,6.246,0,0,1-2.449.478,6.63,6.63,0,0,1-2.5-.466,5.846,5.846,0,0,1-2.007-1.326A6.255,6.255,0,0,1,.49,13.152,7.085,7.085,0,0,1,0,10.464V0H2.509V10.321A5.147,5.147,0,0,0,2.819,12.149Z"/>
  <path id="Path_46" data-name="Path 46" d="M288.936,0V6.092a6.39,6.39,0,0,1,1.935-1.326,5.8,5.8,0,0,1,2.389-.49,6.3,6.3,0,0,1,2.509.5,6.32,6.32,0,0,1,3.393,3.393,6.242,6.242,0,0,1,.5,2.485,6.156,6.156,0,0,1-.5,2.473,6.351,6.351,0,0,1-3.393,3.381,6.3,6.3,0,0,1-2.509.5,5.885,5.885,0,0,1-2.4-.49,6.346,6.346,0,0,1-1.947-1.326v1.529h-2.389V0Zm.275,12.3a4.157,4.157,0,0,0,.9,1.338,4.324,4.324,0,0,0,1.338.908,4.068,4.068,0,0,0,1.649.334,4.008,4.008,0,0,0,1.625-.334,4.179,4.179,0,0,0,1.326-.908,4.431,4.431,0,0,0,.9-1.338,4.067,4.067,0,0,0,.334-1.648,4.152,4.152,0,0,0-.334-1.66,4.391,4.391,0,0,0-.9-1.35,4.022,4.022,0,0,0-1.326-.9,4.2,4.2,0,0,0-4.587.9,4.286,4.286,0,0,0-.908,1.35,4.152,4.152,0,0,0-.334,1.66A4.2,4.2,0,0,0,289.211,12.3Z" transform="translate(-271.376)"/>
  <path id="Path_47" data-name="Path 47" d="M552.283,85.244a6.5,6.5,0,0,1,1.314-2.019,6.321,6.321,0,0,1,6.9-1.4,5.781,5.781,0,0,1,1.935,1.326,6.063,6.063,0,0,1,1.266,2.007,6.851,6.851,0,0,1,.454,2.521v.788h-9.915a4.085,4.085,0,0,0,.478,1.374,4.145,4.145,0,0,0,.9,1.1,4.094,4.094,0,0,0,1.219.729,3.979,3.979,0,0,0,1.445.263,4.18,4.18,0,0,0,3.512-1.792l1.744,1.29a6.365,6.365,0,0,1-5.256,2.6,6.728,6.728,0,0,1-2.544-.478,6.2,6.2,0,0,1-2.055-1.338,6.348,6.348,0,0,1-1.374-2.019,6.518,6.518,0,0,1-.024-4.957Zm3.357-.944a4.072,4.072,0,0,0-1.35,2.258h7.43a3.952,3.952,0,0,0-1.326-2.258,3.756,3.756,0,0,0-4.754,0Z" transform="translate(-522.634 -77.05)"/>
  <path id="Path_48" data-name="Path 48" d="M813.936,87.141a3.235,3.235,0,0,0-.765,2.27v6.928h-2.413V84.155h2.389V85.66a3.4,3.4,0,0,1,1.183-1.171,3.347,3.347,0,0,1,1.732-.43h.836V86.3h-1A2.535,2.535,0,0,0,813.936,87.141Z" transform="translate(-767.898 -79.615)"/>
</svg>
